<svg xmlns="http://www.w3.org/2000/svg" width="212" height="42" viewBox="0 0 212 42">
  <path id="Combined_Shape" data-name="Combined Shape" d="M25.618,42a2.729,2.729,0,0,1-2.708-2.611c0-.012,0-.022,0-.034a2.8,2.8,0,0,1,2.83-2.684h.076a2.6,2.6,0,0,1,2.611,2.418c0,.032,0,.066,0,.1v.035A2.815,2.815,0,0,1,25.687,42h-.069Zm-13.13-2.808a3.474,3.474,0,0,1-1.4-3.618,3.071,3.071,0,0,1,2.5-2.492,2.748,2.748,0,0,1,.516-.063,1.126,1.126,0,0,1,.212.018.878.878,0,0,0,.16.016c.279,0,.4-.167.51-.474.412-1.105.848-2.176,1.258-3.169.106-.256.11-.418-.167-.6a4.844,4.844,0,0,1-2.031-2.756c-.085-.285-.2-.376-.475-.376h-.029c-.18,0-.359.006-.532.006a13.289,13.289,0,0,1-4.528-.7.373.373,0,0,0-.123-.02,1.611,1.611,0,0,0-.585.183,3.32,3.32,0,0,1-1.372.306,2.753,2.753,0,0,1-2.588-1.712,3.615,3.615,0,0,1-.242-2.077,4.751,4.751,0,0,1,2.418-3.495,1.162,1.162,0,0,0,.437-.444,14.56,14.56,0,0,1,2.832-3.685.443.443,0,0,0,.122-.616,2.9,2.9,0,0,1-.076-2.19c.029-.093.059-.184.093-.289l.064-.2-.653-.1c-.6-.1-1.165-.185-1.739-.251l-.031,0a.832.832,0,0,0-.475.234A4.491,4.491,0,0,1,4.532,11.8a2.35,2.35,0,0,1-.49.064.859.859,0,0,1-.708-.317A1.076,1.076,0,0,1,3.3,10.317a4.389,4.389,0,0,1,2.9-2.463,2.138,2.138,0,0,1,.542-.078.854.854,0,0,1,.717.3,1.294,1.294,0,0,1,.07,1.139.977.977,0,0,0-.023.122c-.005.031-.011.067-.019.111l.552.075c.644.087,1.311.178,1.966.254h.013c.1,0,.227-.13.264-.169a6.109,6.109,0,0,1,2.7-1.712.534.534,0,0,0,.415-.471,6.324,6.324,0,0,1,1.031-2.449c.122-.171.2-.31.042-.531a.717.717,0,0,1,.1-.955,5.735,5.735,0,0,1,1.345-1.045,5.765,5.765,0,0,1,2.567-.6,6.239,6.239,0,0,1,.794.051l.085.01a1.223,1.223,0,0,1,.538.144,5.748,5.748,0,0,0,1.917.725,8.222,8.222,0,0,1,1.343.412c.183.079.365.176.543.268a3.919,3.919,0,0,0,1.111.447,1.973,1.973,0,0,0,.337.027,5.414,5.414,0,0,0,.738-.07,5.7,5.7,0,0,1,.708-.071h.064a7.241,7.241,0,0,1,1.306.139.713.713,0,0,0,.13.014.344.344,0,0,0,.32-.212c.154-.261.315-.515.485-.783.073-.114.144-.227.216-.342-.1-.056-.2-.108-.3-.159a3.387,3.387,0,0,1-.656-.4,1.015,1.015,0,0,1-.392-.687c.009-.154.373-.384.6-.419A5.291,5.291,0,0,1,29.15.88a5.139,5.139,0,0,1,2.98.977c.176.122.364.439.316.6a.8.8,0,0,1-.563.426,4.911,4.911,0,0,1-.718.041h-.319c-.105,0-.244,0-.381.009a.546.546,0,0,0-.383.144c-.194.292-.367.6-.535.893-.059.1-.115.2-.173.3l.953.665.445.311,0,0a.171.171,0,0,1,.058.056A2.194,2.194,0,0,0,32.752,6.4c.147.024.3.049.445.079a16.773,16.773,0,0,1,1.71.443,16.662,16.662,0,0,0,2.4.572A4.87,4.87,0,0,1,41.2,10.62a1.734,1.734,0,0,1,.025,1.34,1.344,1.344,0,0,1-.793.72.376.376,0,0,0-.2.245,6.782,6.782,0,0,1-1.972,3.335c-.032.032-.043.057-.038.076s.022.028.051.036l.156.566c.17.614.345,1.245.509,1.868a.819.819,0,0,1,.024.428c-.171.565.1.829.6,1.072.6.292,1.191.625,1.714.918.218.122.423.238.621.346.153-.114.3-.233.433-.348a3.677,3.677,0,0,1,.881-.607,1.326,1.326,0,0,1,.521-.106,2.144,2.144,0,0,1,1.252.5,3.937,3.937,0,0,1,1.394,3.854,1.9,1.9,0,0,1-1.794,1.613,2.2,2.2,0,0,1-1.519-.683,3.913,3.913,0,0,1-1.2-2.563.674.674,0,0,0-.424-.614c-.7-.361-1.38-.726-2.1-1.114l-.014-.007-.807-.435a3.952,3.952,0,0,1-1.763,1.684c-.061.029-.127.055-.2.083-.206.083-.419.168-.495.319a.955.955,0,0,0-.019.547,2.354,2.354,0,0,1,.03.3,14.51,14.51,0,0,1-.615,4.862,1.718,1.718,0,0,0-.033,1.087,4.3,4.3,0,0,1-.462,3.422,4.385,4.385,0,0,1-2.823,2.023,3.868,3.868,0,0,1-.814.086,4.234,4.234,0,0,1-3.792-2.5.912.912,0,0,0-.374-.43,16.378,16.378,0,0,1-4.739-3.419.493.493,0,0,0-.345-.185.681.681,0,0,0-.305.1,5.756,5.756,0,0,1-2.681.7,5.37,5.37,0,0,1-1.079-.111c-.056-.012-.113-.019-.18-.027l-.106-.014q-.154.389-.307.777c-.4,1.023-.822,2.079-1.213,3.123-.035.092.105.3.214.389a3.616,3.616,0,0,1,.992,4.054A3.148,3.148,0,0,1,14.5,39.87,3.39,3.39,0,0,1,12.488,39.191Zm17.9-17.825c-.84.321-1.691.653-2.515.974-.954.372-1.94.755-2.912,1.126-.276.106-.357.225-.331.491a4.472,4.472,0,0,1-.376,2.279c-.179.394-.393.765-.62,1.156-.1.17-.2.346-.3.523a17.439,17.439,0,0,0,3.758,2.906,4.633,4.633,0,0,1,1.429-2.976,4.162,4.162,0,0,1,2.831-1.124,4.42,4.42,0,0,1,2.956,1.186,14.888,14.888,0,0,0,.41-4.7l-.061-.022a.341.341,0,0,0-.089-.028,6.043,6.043,0,0,1-3.7-1.776.31.31,0,0,0-.212-.058A.82.82,0,0,0,30.389,21.367ZM7.673,17.623c.157.055.314.1.466.149a4.6,4.6,0,0,1,.932.355A3.228,3.228,0,0,1,10.4,21.762,10.152,10.152,0,0,1,9.87,23.2c-.092.216-.187.438-.274.662a13.3,13.3,0,0,0,3.369.393c.257,0,.525-.005.794-.017.013-.023.023-.041.032-.057a.143.143,0,0,0,.025-.055A5.538,5.538,0,0,1,15.844,20.3c.2-.161.138-.294.063-.464l-.008-.019-.2-.459c-.32-.731-.651-1.487-.954-2.239-.194-.482-.363-.966-.526-1.433-.065-.186-.128-.366-.189-.538H14c-.207,0-.41.006-.607.013s-.4.013-.594.013a5.193,5.193,0,0,1-.748-.046,7.751,7.751,0,0,1-1.3-.35c-.206-.068-.418-.139-.641-.205A13.9,13.9,0,0,0,7.673,17.623ZM22.185,19.83a4.877,4.877,0,0,1,1.938,2.128c.06.132.134.191.238.191a.5.5,0,0,0,.173-.039c.2-.078.408-.15.608-.22s.407-.143.608-.221c1.039-.4,2.051-.8,3.122-1.212l1.044-.407a4.779,4.779,0,0,1-.4-3.7A3.906,3.906,0,0,1,32.27,13.8l-.684-1.11c-.594-.961-1.155-1.87-1.717-2.8-.144-.238-.28-.335-.47-.335a.767.767,0,0,0-.219.037,3.5,3.5,0,0,1-.895.122c-.106,0-.212.005-.317.005a5.926,5.926,0,0,1-4.605-1.858.562.562,0,0,0-.381-.137.389.389,0,0,0-.1.011c-.664.164-1.375.348-2.074.587-.629.215-1.258.457-1.867.691-.273.1-.544.209-.814.311.485,2.274-.106,3.362-2.877,5.291l1.989,4.8c.064-.01.114-.016.157-.022a.785.785,0,0,0,.154-.029,5.338,5.338,0,0,1,1.805-.312A5.481,5.481,0,0,1,22.185,19.83Zm9.6-12.425a3.248,3.248,0,0,1-.294.787,3.341,3.341,0,0,1-.553.643c-.085.083-.164.16-.237.239.219.358.444.719.662,1.068.526.842,1.069,1.712,1.549,2.594a1.683,1.683,0,0,0,1.435,1.089,5.047,5.047,0,0,1,2.936,1.529,6.516,6.516,0,0,0,1.782-2.571,6.27,6.27,0,0,1-2.767-1.5,2.734,2.734,0,0,1-.856-3.521l-.073-.016-.052-.013-3.4-.772C31.865,7.115,31.823,7.263,31.783,7.405ZM15.14,7.6a3.579,3.579,0,0,1,2.161.75.5.5,0,0,0,.323.131.9.9,0,0,0,.29-.062c1.08-.366,2.182-.726,3.246-1.075l1.33-.437c.071-.023.139-.049.212-.077l.106-.041c-.211-.97.166-1.708,1.256-2.466l-.268-.1L23.748,4.2l-2.8-1.072A2.047,2.047,0,0,1,19.92,4.441a6.06,6.06,0,0,1-3.1.869A6.461,6.461,0,0,1,15.65,5.2a.5.5,0,0,0-.086-.007.38.38,0,0,0-.284.092A6.333,6.333,0,0,0,14.49,7.6h.238l.2,0C15.008,7.594,15.076,7.6,15.14,7.6ZM130.5,37.734h-.024a1.422,1.422,0,0,1-1.083-.7l-.031-.043c-.131-.178-.1-.476-.146-.75h.992c.019.14.036.265.061.455h1.417V34.739c-.458,0-.9,0-1.343,0a1.4,1.4,0,0,1-1.1-1.084c0-.3,0-.591,0-.887s0-.591,0-.886a1.386,1.386,0,0,1,1.084-1.087h.048c.1,0,.2,0,.3,0s.205.005.308.005h.048l.1,0c.079,0,.158-.006.236-.014.041,0,.081-.005.12-.005h0c.031,0,.061,0,.091,0a1.1,1.1,0,0,1,.659.321l.07.066a1.035,1.035,0,0,1,.383.77,1.183,1.183,0,0,1-.047.306h-.907c-.018-.157-.033-.293-.051-.451h-1.415v1.948h1.23a1.284,1.284,0,0,1,1.186,1.2c0,.28-.01.56-.01.84,0,.167.005.335.018.5q.005.073.005.14a1.164,1.164,0,0,1-.43.918,1.136,1.136,0,0,1-.687.366c-.018,0-.036,0-.055,0h-.015a.689.689,0,0,1-.073,0l-.037,0c-.086-.011-.173-.02-.261-.024h-.125l-.057,0a1.38,1.38,0,0,0-.2.025,1.415,1.415,0,0,1-.164.024h-.016l-.07,0Zm-19.244-.018a1.177,1.177,0,0,1-.779-.362l-.032-.032c-.022-.022-.043-.044-.065-.068a1.12,1.12,0,0,1-.345-.8v-.032q.012-.983.011-1.966c0-.749,0-1.5,0-2.246V31.93a1.354,1.354,0,0,1,1.121-1.137h.085l.255,0,.3-.005h.073c.071,0,.142,0,.213,0s.163.009.243.017a1.61,1.61,0,0,1,.636.254,1.116,1.116,0,0,1,.539,1.057,5.889,5.889,0,0,1-.047.637h-.919v-.937h-1.464v4.847H112.5V35.75h.951a4.981,4.981,0,0,1,.047.6,1.18,1.18,0,0,1-.572,1.106,1.471,1.471,0,0,1-.562.231l-.03,0h-.013l-.016,0-.021,0h-.009l-.028,0h0c-.107.005-.216,0-.324,0s-.207-.007-.31,0h0l-.024,0h-.028l-.017,0h-.011l-.028,0-.072.008c-.03,0-.059,0-.089,0h-.022Zm3.548-.471a1.052,1.052,0,0,1-.324-.795c.015-.508.013-1.026.009-1.527q0-.339,0-.676c0-.243,0-.487,0-.73,0-.539,0-1.1,0-1.645a1.351,1.351,0,0,1,1.084-1.079h.034c.081,0,.16,0,.227.005h.014c.074,0,.148.005.222.005a1.8,1.8,0,0,0,.278-.019,1.722,1.722,0,0,1,.266-.022,1.284,1.284,0,0,1,1.1.608.975.975,0,0,1,.205.486c.014,1.516.011,3.056.007,4.545v.206a1.382,1.382,0,0,1-1.086,1.088h-.043c-.094,0-.188,0-.279,0h-.02c-.079,0-.158,0-.236,0a2.882,2.882,0,0,0-.328.016,1.612,1.612,0,0,1-.172.01A1.234,1.234,0,0,1,114.8,37.246Zm.688-.582h1.418V31.8h-1.418Zm-13.045,1.052h-.033a1.363,1.363,0,0,1-1.226-1.325v-.018c.009-.843.011-1.687.011-2.53s0-1.687,0-2.53v-.5h.965v5.858h1.461V30.83h1c.006.136.019.275.019.416q0,1.319,0,2.638t0,2.638a1.329,1.329,0,0,1-1.174,1.178c-.1,0-.191,0-.286-.005l-.188,0h-.064a3,3,0,0,0-.325.015.974.974,0,0,1-.1.008l-.049,0Zm-5.35-.452a1.122,1.122,0,0,1-.341-.832c.013-1.029.011-2.075.009-3.087q0-.7,0-1.4a1.3,1.3,0,0,1,1.148-1.146h.031c.07,0,.14,0,.212,0l.047,0c.1,0,.183.005.272.005a2.969,2.969,0,0,0,.345-.018,1.22,1.22,0,0,1,.159-.01,1.152,1.152,0,0,1,.889.445,1.071,1.071,0,0,1,.343.831c-.018.521-.014,1.05-.011,1.563,0,.213,0,.426,0,.639,0,.233,0,.466,0,.7v.016c0,.53,0,1.077,0,1.617A1.358,1.358,0,0,1,99.091,37.7h-.041c-.092,0-.184,0-.272,0s-.175-.005-.262-.005a2.749,2.749,0,0,0-.33.017,1.458,1.458,0,0,1-.163.009A1.194,1.194,0,0,1,97.094,37.264Zm.674-.6h1.423V31.8H97.768Zm-5.942,1.041h-.042c-.057,0-.113,0-.168-.009a1.176,1.176,0,0,1-.124-.017c-.113-.021-.23-.191-.287-.319-.531-1.2-1.049-2.4-1.571-3.6a1,1,0,0,0-.244-.373v4.274H88.43V30.794c.13,0,.254.007.375.007h.03c.049,0,.1,0,.145-.006l.059-.006.05,0h.028l.056,0a.387.387,0,0,1,.311.246c.012.023.023.048.033.073.516,1.22,1.047,2.433,1.575,3.647a.891.891,0,0,0,.246.35v-4.28h.948V37.7c-.076,0-.153,0-.229.005l-.174.005Zm-10.868,0c-.435,0-.468-.149-.617-.833q-.622-2.867-1.235-5.738c-.021-.1-.025-.2-.04-.322h.955c.314,1.455.632,2.923.949,4.391l.077-.024c.311-1.446.623-2.893.939-4.361h.981q-.734,3.43-1.456,6.811c-.058.031-.081.055-.106.056-.173.011-.312.02-.426.02ZM68.945,37.7h-.723v-6.9h.714l.7,0c.432,0,.782,0,1.1.01.3.005.911.744.912,1.031,0,1.95,0,3.443,0,4.837a1.588,1.588,0,0,1-.967,1.026c-.307,0-.644.007-1.058.007Zm.279-1.035h1.426V31.8H69.224Zm50.746-2.792-.085.021v3.774h-.941V30.794c.129,0,.261-.007.394-.009h.057a2.114,2.114,0,0,1,.293.018l.045.007c.109.019.229.187.277.313.4,1.05.774,2.107,1.159,3.161.054.147.113.292.206.527.3-.813.565-1.543.833-2.274l.354-.974c.225-.616.284-.774.683-.779h.02c.043,0,.09,0,.142,0,.105.006.229.018.376.031l.023,0v6.843h-.937V33.991l-.131-.028c-.445,1.21-.89,2.419-1.367,3.713C120.884,36.358,120.426,35.116,119.969,33.873ZM77.1,37.674V30.807h.917v6.867Zm-1.086,0h-.9V34.76H73.636V37.67h-.968V30.794h.706l.692,0c.421,0,.763,0,1.076.007a1.568,1.568,0,0,1,.932,1.011l0,.186c.006.563.012,1.145-.009,1.716a.9.9,0,0,1-.115.355c-.018.035-.032.066-.041.089.021.111.045.213.068.312a2.679,2.679,0,0,1,.092.557c.011.628,0,1.267,0,1.885l-.005.664a.11.11,0,0,1-.022.054c-.007.014-.016.028-.025.047ZM73.64,33.713h1.432V31.808H73.64ZM84,37.673V30.816h3.374v.95h-2.4v1.976H86.4v.994H84.971V36.68h2.388v.993Zm22.854,0v-5.9h-1.2v-.968h3.384v.965h-1.181v5.9Zm-45.015,0v-.936l.455-.066V31.822l-.468-.09v-.916H63.75v.924l-.451.076v4.847l.455.067v.938Zm-3.511,0h-1.9v-.938a.79.79,0,0,0,.135.012c.347,0,.394-.276.44-.544.008-.045.016-.091.025-.135q.238-1.15.476-2.3l.009-.042q.3-1.447.6-2.9H59.1q.4,1.914.8,3.832l.423,2.025.323.035.152.016v.939H58.876v-.93l.177-.027.269-.041-.038-.222c-.038-.227-.076-.451-.116-.691H58.061l-.077.381-.1.512.3.063.148.031v.927h0Zm.027-3.524-.107.575h.724l-.316-1.685h-.094C58.491,33.4,58.423,33.768,58.352,34.143Zm66.48,3.523V30.821h3.391v.956h-2.39v1.96h1.417v.983h-1.414V36.7h2.394v.97ZM40.037,35.3h-.021a2.136,2.136,0,0,1-1.989-1.6,6.658,6.658,0,0,1-.153-.78,2.828,2.828,0,0,1,1.222-2.5,1.925,1.925,0,0,1,1.052-.33h.058a1.937,1.937,0,0,1,1.326.577,2.044,2.044,0,0,1,.156.173,2.918,2.918,0,0,1-.217,3.858l-.039.037,0,0-.034.031-.013.013-.074.062a2.008,2.008,0,0,1-1.248.465ZM5.108,33.1H5.071a1.868,1.868,0,0,1-1.289-.571l-.043-.044c-.031-.032-.061-.067-.091-.1a2.868,2.868,0,0,1-.63-1.83,2.91,2.91,0,0,1,.747-1.985c.022-.023.044-.046.067-.068a1.947,1.947,0,0,1,1.339-.573h.04a1.873,1.873,0,0,1,1.521.815c.01.014.019.028.028.041.031.045.06.093.087.141a.358.358,0,0,1,.018.031,6.84,6.84,0,0,1,.452,1.278A2.973,2.973,0,0,1,6.269,32.7c-.044.033-.09.065-.135.094a1.91,1.91,0,0,1-.987.308Zm164.157-6.94h-.017a5.15,5.15,0,0,1-1.979-.4l-.028-.012-.11-.048a10.251,10.251,0,0,1-1.4-.908L167,23.5c.041.055.085.106.129.156a2.538,2.538,0,0,0,1.94.748h.107a2.047,2.047,0,0,0,2.2-1.967,9.725,9.725,0,0,0,.068-1.12q0-.963,0-1.924V17.468q0-1.924.009-3.847a14.493,14.493,0,0,1,.158-1.5h1.941c.012.117.032.228.032.339-.006,3.17,0,6.34-.026,9.51a3.873,3.873,0,0,1-2.876,4.02l-.07.016-.051.012c-.05.012-.1.022-.152.031a5.947,5.947,0,0,1-1.12.114Zm-34.458-.016h-.052a5.673,5.673,0,0,1-1.933-.354l-.063-.024-.12-.047a3.08,3.08,0,0,1-1.371-1.055l1.2-1.225c.03.039.059.076.09.112a2.535,2.535,0,0,0,2.057.847h.067a2.049,2.049,0,0,0,2.205-1.963,9.862,9.862,0,0,0,.066-1.165q0-.95,0-1.9t0-1.9q0-1.9.01-3.8c0-.511.1-1.021.158-1.546h1.949c.008.163.022.315.022.467-.005,3.1,0,6.2-.028,9.293a5.315,5.315,0,0,1-.211,1.488,3.555,3.555,0,0,1-3,2.691l-.1.015a6.625,6.625,0,0,1-.927.072Zm-.76-3.927h-.031a3.457,3.457,0,0,1-3.246-2.21,7.456,7.456,0,0,1-.7-3.044,6.2,6.2,0,0,1,.8-3.031c.01-.017.02-.034.029-.051l.007-.012.036-.061a3.89,3.89,0,0,1,3.326-1.828h.033a3.978,3.978,0,0,1,1.6.341.434.434,0,0,1,.321.432.426.426,0,0,1,0,.048c-.009.192-.012.384-.012.581,0,.289.005.59.005.918-.118-.08-.165-.109-.208-.141l-.059-.044-.059-.041a2.175,2.175,0,0,0-1.194-.41h-.05a1.917,1.917,0,0,0-1.54.9l-.01.014c-.026.038-.052.076-.077.117a4.135,4.135,0,0,0-.625,2.247,5.125,5.125,0,0,0,.066.79,5.2,5.2,0,0,0,.589,1.736c.023.04.047.077.071.115l.02.031a1.912,1.912,0,0,0,1.509.895h.086a2.247,2.247,0,0,0,1.416-.588l.018-.014.037-.032c0,.292,0,.571,0,.841,0,.308,0,.606-.012.9,0,.06-.134.135-.22.172a4.854,4.854,0,0,1-1.915.423Zm34.486,0h-.015a3.421,3.421,0,0,1-3.156-2c-.03-.058-.059-.118-.086-.178l-.017-.037a7.435,7.435,0,0,1-.7-3.042,6.191,6.191,0,0,1,.8-3.03l.045-.079.054-.089.005-.009a3.892,3.892,0,0,1,3.278-1.775h.05a4,4,0,0,1,1.445.275c.051.02.1.041.152.064a.436.436,0,0,1,.323.431.426.426,0,0,1,0,.048c-.009.192-.012.384-.012.58,0,.286.005.581.005.9-.109-.066-.18-.1-.241-.146a2.178,2.178,0,0,0-1.249-.47h-.04l-.058,0a1.889,1.889,0,0,0-1.422.771l-.031.04-.014.018c-.009.011-.017.023-.025.034l-.016.022c-.018.026-.037.052-.055.079a4.093,4.093,0,0,0-.664,2.329,5.851,5.851,0,0,0,.043.695,5.147,5.147,0,0,0,.408,1.486c.023.05.048.1.073.148a2.083,2.083,0,0,0,1.762,1.22h.059a2.254,2.254,0,0,0,1.425-.595l.043-.038c0,.307,0,.593,0,.868s0,.537-.014.8c0,.09-.133.211-.232.255l-.048.021-.016.007-.071.029-.043.018a4.771,4.771,0,0,1-1.729.348Zm-82.04-.011a2.7,2.7,0,0,1-2.576-2.2,4.568,4.568,0,0,1-.062-.75A3.1,3.1,0,0,1,86.762,16.1c.548-.094,1.111-.093,1.72-.139v1.264a10.974,10.974,0,0,0-1.229.152,1.8,1.8,0,0,0-1.45,1.748,1.868,1.868,0,0,0,.271.952c.2.335.628.532,1.029.853v1.215a2.488,2.488,0,0,1-.55.061Zm121.272-.01h-.046a4.291,4.291,0,0,1-2.4-.727l-.043-.029c-.063-.043-.126-.089-.189-.136l.833-1.326,2.193.715v1.491l-.187.008-.148,0Zm-9.776-.014h-.007c-.068,0-.136,0-.205,0l-.082,0a4.728,4.728,0,0,1-4.444-4.569c-.011-.168-.016-.334-.017-.5a5.225,5.225,0,0,1,2.071-4.333,3.554,3.554,0,0,1,2.092-.773c0,.264,0,.517,0,.766s0,.492-.011.736a.324.324,0,0,1-.184.231A2.694,2.694,0,0,0,195.377,16a6.206,6.206,0,0,0-.126,1.257,5.337,5.337,0,0,0,.054.752q.019.121.043.238a2.6,2.6,0,0,0,2.571,2.212h.042a3.487,3.487,0,0,0,.99-.156l.063-.02.049-.016a11.717,11.717,0,0,0,1.385-.672l.723,1.1c-.076.1-.153.192-.234.28l-.03.032-.034.036-.006.006a3.792,3.792,0,0,1-2.848,1.129Zm-121.2,0h-.127l-.129,0a4.306,4.306,0,0,1-3.8-2.451,5.551,5.551,0,0,1-.665-2.639,5.39,5.39,0,0,1,2.063-4.3l.07-.052.032-.023a3.4,3.4,0,0,1,1.889-.679h.067l.05,0c0,.218,0,.436,0,.654,0,.282,0,.563-.01.845a.29.29,0,0,1-.173.2,2.725,2.725,0,0,0-1.8,2.092,4.825,4.825,0,0,0-.2,1.365,5.178,5.178,0,0,0,.116,1.073c0,.01,0,.021.007.031a2.657,2.657,0,0,0,2.534,2.159h.1a3.085,3.085,0,0,0,.632-.069c.043-.01.087-.02.131-.031a13.042,13.042,0,0,0,1.737-.723l.7,1.068c-.028.036-.056.072-.085.106l-.025.031c-.039.047-.078.091-.118.135a3.822,3.822,0,0,1-2.929,1.21ZM208.9,20.667c.006-.094.192-.212.316-.254.674-.232.97-.609.9-1.184a1.032,1.032,0,0,0-.795-.824.617.617,0,0,1-.445-.746c.028-.4.009-.806.013-1.209a.491.491,0,0,1,.045-.111c1.322.437,2.643.856,3.068,2.43v.951a3.105,3.105,0,0,1-2.655,2.379c-.138.026-.278.039-.463.063C208.881,21.638,208.864,21.151,208.9,20.667Zm-99.764,1.46c-.07,0-.139-.011-.251-.022-.009-.181-.023-.347-.024-.515-.016-1.958-.028-3.917-.049-5.875a3.3,3.3,0,0,0-.091-.682c0-.014-.006-.029-.01-.043-.012-.049-.024-.1-.038-.142a1.484,1.484,0,0,0-1.528-1.207h-.03a2.793,2.793,0,0,0-.293.017c-.4.043-.782.156-1.21.245,0-.211-.005-.421-.005-.63,0-.163,0-.325.015-.486a.46.46,0,0,1,.229-.3l.089-.045a3.884,3.884,0,0,1,1.711-.448h.034a3.475,3.475,0,0,1,2.449,1.148,2.846,2.846,0,0,1,.817,1.993c.06,2.288.048,4.577.062,6.867,0,.024-.023.05-.061.128C110.338,22.128,109.734,22.128,109.131,22.127Zm79.2-.021c0-.121,0-.231,0-.338,0-.049,0-.1,0-.145V19.579c0-1.135,0-2.271-.018-3.406a5.387,5.387,0,0,0-.194-1.4c0-.012-.006-.023-.01-.035-.014-.043-.028-.085-.042-.126a1.385,1.385,0,0,0-1.39-.97h-.025l-.079,0c-.038,0-.077,0-.116.007-.438.037-.871.153-1.355.242,0-.211,0-.424,0-.638,0-.167,0-.334.014-.5a.41.41,0,0,1,.221-.266q.1-.047.2-.089h0l.058-.024a4.314,4.314,0,0,1,1.637-.383h.034a3.325,3.325,0,0,1,2.407,1.214l.037.039a2.887,2.887,0,0,1,.742,1.985c.019,1,.024,1.992.025,2.992,0,1.286-.009,2.579-.009,3.89Zm-45.61,0V9.05h2.107V22.106Zm-23.527,0v-10h.89l.384,0c.146,0,.292,0,.438.009a.316.316,0,0,1,.221.2,4.467,4.467,0,0,1,.186,1.015q.012,2.395.009,4.791,0,1.863,0,3.726c0,.072-.011.143-.02.266ZM114,22.1v-9.97h2.106V22.1Zm-19.194,0V12.133h1.9a7.173,7.173,0,0,1,.2,1.186q.014,2.118.011,4.238t0,4.238a2.681,2.681,0,0,1-.037.31Zm64.981,0v-.793q0-1.154,0-2.308c0-.879,0-1.759-.014-2.637a6.62,6.62,0,0,0-.178-1.5,1.449,1.449,0,0,0-1.48-1.231h-.052c-.06,0-.123,0-.187.009l-.042,0c-.424.04-.841.156-1.307.247,0-.205,0-.41,0-.614,0-.179,0-.359.015-.537.006-.094.133-.21.233-.262l.087-.045h0a3.873,3.873,0,0,1,1.7-.446h.072a3.367,3.367,0,0,1,2.392,1.118q.074.076.146.157a3.452,3.452,0,0,1,.752,2.339c.02,1.058.025,2.118.025,3.177,0,.927,0,1.854,0,2.78v.4a.591.591,0,0,1-.041.141Zm-34.487,0c0-.1,0-.2,0-.29,0-.074,0-.147,0-.22-.021-2.017-.037-4.034-.071-6.051a2.678,2.678,0,0,0-.163-.8c-.01-.031-.021-.059-.032-.088s-.015-.041-.023-.061a1.382,1.382,0,0,0-1.353-.958h-.118l-.04,0-.072.005c-.453.037-.9.155-1.39.244,0-.2-.005-.41-.005-.618,0-.161,0-.322.016-.483a.471.471,0,0,1,.236-.3l.059-.031a3.884,3.884,0,0,1,1.733-.461h.071a3.366,3.366,0,0,1,2.39,1.118q.074.076.146.157a3.342,3.342,0,0,1,.743,2.254c.022,1.147.026,2.3.026,3.444,0,.878,0,1.757,0,2.634v.406c0,.024-.023.05-.048.1Zm56.937,0V12.121h1.948a13.46,13.46,0,0,1,.162,1.454q.012,2,.01,4t0,4V22.1Zm-79.48,0V12.119h1.895a6.536,6.536,0,0,1,.208,1.152q.014,2.148.012,4.3t0,4.3a2.181,2.181,0,0,1-.027.236Zm42.872,0V20.528h5.241V22.1ZM62.1,22.1V22H62V9h2.083v.039h.139V20.4H70v.091h.246V22.1Zm114.932,0V12.121h2.118V22.1Zm-23.346-.006V12.1c.579,0,1.124-.009,1.669.009a.357.357,0,0,1,.265.2,4.132,4.132,0,0,1,.186,1.015q.011,2.129.01,4.259t0,4.26c0,.071-.009.143-.017.252Zm-96.9,0h0V12.135H58.9V22.09Zm34.329-.009-.027,0-.008,0-.006,0a2,2,0,0,1-1.337-1.241,2.993,2.993,0,0,1-1.862,1.222c0-.207,0-.405,0-.6s0-.384.012-.573c0-.078.118-.169.2-.22.17-.105.369-.167.531-.282a1.275,1.275,0,0,0,.63-1.1c0-.025,0-.051,0-.077-.058-1.352-.008-2.708-.053-4.061-.037-1.111-.328-1.63-1.327-1.638h-.036a4.373,4.373,0,0,0-.47.031l-.041.005H87.3l-.13.018a9.879,9.879,0,0,0-1.885.692l-.731-1.114a5.169,5.169,0,0,1,.555-.391l.043-.023.085-.043a6.014,6.014,0,0,1,2.678-.659h.04a5.858,5.858,0,0,1,1.067.1l.058.011a2.633,2.633,0,0,1,2.174,2.692c.087,1.32.079,2.647.119,3.971a7.441,7.441,0,0,0,.076,1.162,7.407,7.407,0,0,0,.348,1.026l.133-.017a9.87,9.87,0,0,1-.465.956.2.2,0,0,1-.039.045.457.457,0,0,1-.123.074.478.478,0,0,1-.175.04ZM1.025,19.84C.42,19.825,0,19.328,0,18.533a3.4,3.4,0,0,1,1.852-2.764,1.494,1.494,0,0,1,.527-.12h.046a1.055,1.055,0,0,1,1.016,1.129c0,.044,0,.088,0,.133a3.336,3.336,0,0,1-1.84,2.811,1.46,1.46,0,0,1-.519.118H1.025Zm204.444-3.488a2.168,2.168,0,0,1-.438-1.375,2.877,2.877,0,0,1,.753-1.964,3.733,3.733,0,0,1,2.354-1.075c0,.274,0,.545,0,.811s0,.531-.014.795c0,.084-.139.2-.238.235a1.071,1.071,0,0,0-.718.984c0,.039,0,.076,0,.113a.98.98,0,0,0,.609.934.58.58,0,0,1,.374.593c0,.029,0,.058,0,.087-.009.185-.012.372-.012.562,0,.277.005.562.005.865A5.061,5.061,0,0,1,205.469,16.352Zm-9.259,1.463V16.277H200.2a1.429,1.429,0,0,0,.02-.257,2.53,2.53,0,0,0-1.694-2.247c-.314-.087-.4-.222-.406-.482,0-.027,0-.055,0-.085.01-.156.012-.311.012-.467,0-.229-.006-.457-.006-.686,2.649.132,4.176,2.6,4.183,4.828a4.566,4.566,0,0,1-.092.933Zm-121.163,0V16.279h4a1.98,1.98,0,0,0,.023-.307c-.006-.975-.75-1.816-2.069-2.341V12.053h.112c2.412.046,4.471,2.972,3.974,5.72,0,.013,0,.026-.007.04ZM20.8,14.206a3.049,3.049,0,0,1,3.263-2.777,3.05,3.05,0,0,1,3.264,2.777,3.05,3.05,0,0,1-3.264,2.776A3.049,3.049,0,0,1,20.8,14.206Zm24.524,2.75a1.414,1.414,0,0,1-.319-.049l-.052-.015-.013,0-.062-.021a3.425,3.425,0,0,1-2.011-2.748c0-.01,0-.019,0-.029a.846.846,0,0,1,.813-.968h.03a1.235,1.235,0,0,1,.261.031l.063.016a3.348,3.348,0,0,1,2.124,2.789c0,.629-.3.986-.783,1h-.05Zm100.3-.771V14.8H150.3v1.381ZM97.654,14.206c0-.234,0-.5,0-.771,0-.243,0-.5.019-.748.006-.106.182-.266.3-.293.778-.175,1.562-.319,2.416-.487v2.3ZM208.9,13.614V11.932a5.233,5.233,0,0,1,2.762.811L211,14.135Zm-63.276-3.009V9.048h5.237v1.558Zm32.476-.462h-.033a1.242,1.242,0,0,1-1.23-1.242,1.292,1.292,0,0,1,1.25-1.286h.04A1.268,1.268,0,0,1,179.365,8.9a1.217,1.217,0,0,1-1.26,1.245Zm-63.044,0-.067,0A1.211,1.211,0,0,1,113.8,8.9a1.264,1.264,0,0,1,1.236-1.286h.051A1.278,1.278,0,0,1,116.324,8.9a1.23,1.23,0,0,1-1.263,1.246Zm-57.222,0H57.8A1.211,1.211,0,0,1,56.58,8.906a1.267,1.267,0,0,1,1.231-1.291h.055a1.283,1.283,0,0,1,1.239,1.246v.033a1.236,1.236,0,0,1-1.261,1.25ZM36.153,5.1a.853.853,0,0,1-.146-.464.346.346,0,0,1,.033-.157.283.283,0,0,1,.073-.083.5.5,0,0,1,.074-.049.792.792,0,0,1,.159-.068.782.782,0,0,1,.228-.038H36.6l.023,0a3.825,3.825,0,0,1,2.743,1.594.709.709,0,0,1,.11.392.394.394,0,0,1-.045.2c-.1.156-.371.2-.5.264A4.15,4.15,0,0,1,36.153,5.1ZM9.77,5.039a.447.447,0,0,1-.076-.007.705.705,0,0,1-.459-.308.206.206,0,0,1-.017-.088.822.822,0,0,1,.2-.472A4.108,4.108,0,0,1,12,2.9c.153.008.269.005.382.023.3.049.463.2.465.4a.614.614,0,0,1-.152.373A3.5,3.5,0,0,1,10.91,4.844a4.042,4.042,0,0,1-1.135.2ZM20.611,1.063c-.152-.045-.264-.224-.394-.343.121-.131.216-.311.365-.385L20.6.323c.059-.028.118-.054.177-.078A3.648,3.648,0,0,1,22.148,0h.044c.176,0,.353.01.53.025l.045,0a3.044,3.044,0,0,1,.831.2c.154.062.267.229.4.347-.132.138-.241.353-.4.4-.546.158-1.109.258-1.648.376C21.47,1.256,21.032,1.187,20.611,1.063Z" transform="translate(0)" fill="#001b4a"/>
</svg>
