<svg xmlns="http://www.w3.org/2000/svg" width="16" height="15.996" viewBox="0 0 16 15.996">
  <g id="icons8-logout_rounded_left" transform="translate(16)">
    <path id="Shape" d="M-1.552,12.724a.348.348,0,0,0,.046-.351.351.351,0,0,0-.285-.21.347.347,0,0,0-.32.149A7.291,7.291,0,0,1-8,15.3,7.3,7.3,0,0,1-15.3,8,7.3,7.3,0,0,1-8,.7a7.29,7.29,0,0,1,5.89,2.987.346.346,0,0,0,.32.148.348.348,0,0,0,.285-.209.348.348,0,0,0-.046-.351A7.989,7.989,0,0,0-8,0a8,8,0,0,0-8,8,8,8,0,0,0,8,8A7.989,7.989,0,0,0-1.552,12.724Zm-1.337-1.7,2.75-2.751A.347.347,0,0,0,0,8a.349.349,0,0,0-.137-.277L-2.888,4.97a.348.348,0,0,0-.239-.105.349.349,0,0,0-.33.212.347.347,0,0,0,.078.385L-1.192,7.65H-8.7A.347.347,0,0,0-9,7.823a.344.344,0,0,0,0,.35.347.347,0,0,0,.305.173h7.506L-3.38,10.534a.349.349,0,0,0-.1.338.348.348,0,0,0,.249.249.346.346,0,0,0,.087.011A.351.351,0,0,0-2.888,11.026Z" fill="#001b4a"/>
  </g>
</svg>
