<svg id="icons8-quiz" xmlns="http://www.w3.org/2000/svg" width="16" height="17.983" viewBox="0 0 16 17.983">
  <path id="Shape" d="M8.242,14.236a3.755,3.755,0,0,1,3.371-3.728v-.393h-.374V9.366h1.5v.749h-.374v.393a3.747,3.747,0,1,1-4.121,3.728ZM0,17.234V0H9.52l3.967,3.967V8.617h-.75V4.5H8.992V.75H.75V16.484H8.1a4.2,4.2,0,0,0,.517.712v.038Zm2.623-3V11.989H4.871v2.247Zm3-.749v-.75H7.752a4.17,4.17,0,0,0-.2.75Zm8.791-2.695.53-.53L16,11.323l-.53.529Zm-11.788.446V8.992H4.871v2.247Zm3-.749v-.75H10.49V10a4.351,4.351,0,0,0-.975.488Zm-3-2.248V5.994H4.871V8.242Zm3-.75V6.744h5.245v.749Z" fill="#20a6d2"/>
</svg>
