<svg id="icons8-rocket" xmlns="http://www.w3.org/2000/svg" width="16" height="16" viewBox="0 0 16 16">
  <path id="Shape" d="M0,16v-.327A7.359,7.359,0,0,1,.143,13.98a1.9,1.9,0,0,1,.49-.929c.434-.426.916-.478,1.449-.887l.388.51c-.642.492-1.129.6-1.378.847a1.173,1.173,0,0,0-.306.612,7.157,7.157,0,0,0-.1,1.184c1.085-.043,1.611-.22,1.847-.459.267-.272.362-.75.786-1.327l.53.388c-.334.454-.407.951-.847,1.4S1.826,16,.327,16Zm7.4-.986a.325.325,0,0,1-.213-.228l-.5-1.98-.132.1-.051.041-.061.02a.812.812,0,0,1-.224.021,1.214,1.214,0,0,1-.133-.021l-1.193.7a.646.646,0,0,1-.1.04.511.511,0,0,1-.132.01.847.847,0,0,1-.327-.081,4.042,4.042,0,0,1-1.1-.868,4.045,4.045,0,0,1-.868-1.1.867.867,0,0,1-.082-.327.563.563,0,0,1,.011-.133.662.662,0,0,1,.04-.1l.7-1.183a1.154,1.154,0,0,1-.02-.143.831.831,0,0,1,.02-.224L3.051,9.5l.04-.041L3.2,9.316l-1.99-.5A.328.328,0,0,1,1.04,8.3L2.674,6.337A.323.323,0,0,1,2.9,6.214H5.714C6.78,4.931,7.948,3.573,8.776,2.745a8.292,8.292,0,0,1,2.163-1.551A12.211,12.211,0,0,1,15.653.01L16,0l-.011.347A12.427,12.427,0,0,1,14.8,5.062a8.286,8.286,0,0,1-1.541,2.163c-.81.81-2.177,1.977-3.47,3.051v2.8a.327.327,0,0,1-.122.255L7.7,14.959a.327.327,0,0,1-.2.072A.315.315,0,0,1,7.4,15.014Z" fill="#fff"/>
</svg>
