<svg id="icons8-play_property" xmlns="http://www.w3.org/2000/svg" width="16" height="16" viewBox="0 0 16 16">
  <path id="Shape" d="M10.24,15.391V10.849a.608.608,0,0,1,.608-.608.2.2,0,0,1,.128.031l4.513,2.24c.127.066.511.257.511.609s-.384.544-.511.608l-4.513,2.24a.2.2,0,0,1-.128.031A.631.631,0,0,1,10.24,15.391ZM.32,13.12A.3.3,0,0,1,0,12.8V.9A.916.916,0,0,1,.9,0H13.184a.915.915,0,0,1,.9.9V10.56a.338.338,0,0,1-.159.289.292.292,0,0,1-.32,0,.384.384,0,0,1-.16-.289V2.88H.64v9.6H9.28a.338.338,0,0,1,.289.159c0,.033.031.064.031.1v.128c0,.032-.031.064-.031.1a.338.338,0,0,1-.289.16Zm4.16-2.88V9.6H9.6v.64Zm-2.24,0V9.6H3.52v.64Zm2.24-1.6V8h7.36v.64Zm-2.24,0V8H3.52v.64Zm2.24-1.6V6.4h7.36v.64Zm-2.24,0V6.4H3.52v.64Zm2.24-1.6V4.8h7.36v.64Zm-2.24,0V4.8H3.52v.64Z" fill="#20a6d2"/>
</svg>
