<svg id="icons8-settings" xmlns="http://www.w3.org/2000/svg" width="16" height="16.001" viewBox="0 0 16 16.001">
  <path id="Shape" d="M8.941,16H7.028a.348.348,0,0,1-.344-.291l-.344-2.075a5.82,5.82,0,0,1-1.164-.48L3.452,14.362a.347.347,0,0,1-.445-.039L1.655,12.97a.349.349,0,0,1-.037-.448l1.218-1.7a5.845,5.845,0,0,1-.485-1.168L.287,9.284A.348.348,0,0,1,0,8.942V7.028a.348.348,0,0,1,.29-.343l2.063-.343a5.86,5.86,0,0,1,.487-1.168l-1.2-1.721a.347.347,0,0,1,.039-.445L3.029,1.656a.347.347,0,0,1,.448-.037l1.709,1.22a5.8,5.8,0,0,1,1.16-.476L6.684.292A.348.348,0,0,1,7.028,0H8.941a.349.349,0,0,1,.344.288L9.648,2.37a5.853,5.853,0,0,1,1.16.483l1.713-1.232a.347.347,0,0,1,.449.036L14.324,3.01a.349.349,0,0,1,.039.445l-1.22,1.739a5.9,5.9,0,0,1,.477,1.15l2.09.342A.348.348,0,0,1,16,7.029V8.942a.348.348,0,0,1-.288.343l-2.092.367a5.85,5.85,0,0,1-.476,1.151l1.238,1.718a.347.347,0,0,1-.036.449l-1.353,1.354a.347.347,0,0,1-.445.039l-1.735-1.218a5.837,5.837,0,0,1-1.158.486l-.369,2.083A.348.348,0,0,1,8.942,16Z" fill="#20a6d2"/>
</svg>
