<svg id="icons8-rocket2" xmlns="http://www.w3.org/2000/svg" width="11.997" height="12" viewBox="0 0 11.997 12">
  <path id="Shape" d="M4.373,11.245,4.068,9.719,2.281,7.933.755,7.628,0,7.482l.48-.61.973-1.191A1.851,1.851,0,0,1,2.993,5l.8.043c.2-.261.191-.256.407-.537C5.292,3.078,6.474,1.56,7.046.988A4.4,4.4,0,0,1,9.778.059C10.253.014,10.7,0,11.027,0s.523.014.523.014l.421.014.014.421a13.339,13.339,0,0,1-.043,1.773,4.455,4.455,0,0,1-.915,2.746C10.463,5.531,8.94,6.707,7.51,7.8c-.29.221-.281.216-.552.421L7,9.007a1.85,1.85,0,0,1-.682,1.54l-1.192.974-.6.479ZM.857,10.591a6.714,6.714,0,0,1,.233-.843,3.659,3.659,0,0,1,.784-1.408l.654.653a3.339,3.339,0,0,0-.523,1,2.985,2.985,0,0,0,.987-.523l.654.653a3.626,3.626,0,0,1-1.424.8,6.224,6.224,0,0,1-.828.218l-.683.13Z" fill="#20a6d2"/>
</svg>
