<svg id="icons8-classroom" xmlns="http://www.w3.org/2000/svg" width="16" height="15.238" viewBox="0 0 16 15.238">
  <path id="Shape" d="M13.207,14.554a1.521,1.521,0,0,1-2.54,0,1.521,1.521,0,0,1-2.54,0,1.521,1.521,0,0,1-2.54,0,1.521,1.521,0,0,1-2.54,0,1.524,1.524,0,1,1,0-1.679,1.52,1.52,0,0,1,2.54,0,1.52,1.52,0,0,1,2.54,0,1.52,1.52,0,0,1,2.54,0,1.52,1.52,0,0,1,2.54,0,1.523,1.523,0,1,1,0,1.679ZM5.841,11.428v-.508h9.651v-.254a.254.254,0,0,0-.254-.254h-.254V.762h-9.4L5.333.254H15.492V9.949a.763.763,0,0,1,.509.718v.761Zm-1.015,0V5.333h4.7a.381.381,0,0,0,0-.762H4.207L3.3,6.08,2.4,4.571H1.524A1.013,1.013,0,0,0,.508,5.587v4.19a.381.381,0,0,0,.762,0h.508v1.651H1.27v-.857a.854.854,0,0,1-.381.1A.892.892,0,0,1,0,9.778V5.587A1.528,1.528,0,0,1,1.524,4.063h1.16L3.3,5.094,3.92,4.063h5.6a.889.889,0,1,1,0,1.778H5.333v5.587Zm9.142-1.27a.254.254,0,1,1,.254.255A.255.255,0,0,1,13.968,10.158Zm-1.015,0a.254.254,0,1,1,.254.255A.254.254,0,0,1,12.953,10.158Zm-1.016,0a.254.254,0,1,1,.254.255A.255.255,0,0,1,11.937,10.158Zm-1.016,0a.254.254,0,1,1,.254.255A.255.255,0,0,1,10.921,10.158Zm-1.016,0a.254.254,0,1,1,.254.255A.255.255,0,0,1,9.9,10.158Zm-1.015,0a.254.254,0,1,1,.254.255A.254.254,0,0,1,8.889,10.158Zm-1.016,0a.254.254,0,1,1,.254.255A.255.255,0,0,1,7.873,10.158Zm-1.016,0a.254.254,0,1,1,.254.255A.255.255,0,0,1,6.857,10.158Zm-1.016,0a.254.254,0,1,1,.254.255A.255.255,0,0,1,5.841,10.158ZM1.27,9.143a.254.254,0,1,1,.254.254A.254.254,0,0,1,1.27,9.143Zm0-1.016a.254.254,0,1,1,.254.254A.255.255,0,0,1,1.27,8.127Zm0-1.016a.254.254,0,1,1,.254.254A.255.255,0,0,1,1.27,7.111Zm0-1.016a.254.254,0,1,1,.254.255A.255.255,0,0,1,1.27,6.095Zm.254-4.317A1.778,1.778,0,1,1,3.3,3.556,1.781,1.781,0,0,1,1.524,1.778Z" fill="#20a6d2"/>
</svg>
